<svg width="37" height="41" viewBox="0 0 37 41" fill="none" xmlns="http://www.w3.org/2000/svg">
<path d="M26.6224 34.9884C25.9877 34.6516 25.2458 34.5782 24.5574 34.7841C23.869 34.99 23.2894 35.4586 22.9444 36.0884L22.9257 36.1163C22.7579 36.4279 22.6536 36.7697 22.6188 37.1218C22.584 37.474 22.6195 37.8295 22.7231 38.1679C22.8268 38.5063 22.9965 38.8208 23.2226 39.0931C23.4487 39.3655 23.7266 39.5904 24.0402 39.7548C24.6738 40.0925 25.4151 40.1672 26.1035 39.9625C26.7918 39.7579 27.3716 39.2905 27.7174 38.6616L27.736 38.6336C27.9042 38.3214 28.0088 37.979 28.0438 37.6261C28.0789 37.2733 28.0436 36.917 27.94 36.5779C27.8365 36.2387 27.6667 35.9234 27.4406 35.6502C27.2144 35.3769 26.9363 35.1511 26.6224 34.9859V34.9884ZM34.3569 1.80818C33.6578 1.63373 32.9181 1.74166 32.2981 2.10856C31.9926 2.28902 31.7258 2.52809 31.5132 2.812C31.3006 3.0959 31.1463 3.41904 31.0591 3.76279L24.9362 27.8985C24.8351 28.2952 24.8268 28.7099 24.912 29.1104C24.9972 29.5108 25.1735 29.8863 25.4274 30.2076C25.7424 30.6047 26.1618 30.9064 26.6387 31.0787C27.1155 31.2511 27.631 31.2873 28.1274 31.1834C28.6237 31.0794 29.0812 30.8395 29.4487 30.4903C29.8162 30.1412 30.0792 29.6967 30.208 29.2066L36.3309 5.07095C36.419 4.72824 36.4377 4.3714 36.3859 4.02137C36.3342 3.67135 36.213 3.33517 36.0294 3.03256C35.6562 2.41886 35.0543 1.97844 34.356 1.80818H34.3569ZM10.7341 9.78656C8.87707 9.78222 7.05087 10.2611 5.43524 11.1759V3.45902C5.43414 3.10388 5.36287 2.75245 5.22554 2.42488C5.08821 2.09731 4.88751 1.80005 4.63496 1.55015C4.3824 1.30024 4.08295 1.10261 3.75379 0.968578C3.42462 0.834549 3.07222 0.766761 2.71677 0.769102C2.36159 0.766873 2.00945 0.834694 1.68054 0.968678C1.35163 1.10266 1.05242 1.30018 0.800039 1.5499C0.547662 1.79963 0.347084 2.09665 0.209799 2.42397C0.0725132 2.75128 0.00121858 3.10244 0 3.45733V28.3342C0.00133014 28.6891 0.0727008 29.0402 0.210026 29.3675C0.34735 29.6947 0.547932 29.9917 0.800287 30.2414C1.05264 30.4911 1.35181 30.6887 1.68067 30.8227C2.00953 30.9567 2.36162 31.0246 2.71677 31.0225C3.07204 31.0247 3.42426 30.9569 3.75327 30.8229C4.08227 30.689 4.3816 30.4915 4.63411 30.2418C4.88662 29.9921 5.08736 29.6951 5.22483 29.3677C5.3623 29.0404 5.4338 28.6892 5.43524 28.3342V20.4058C5.43524 19.0014 5.99361 17.6545 6.9875 16.6615C7.9814 15.6684 9.32941 15.1106 10.735 15.1106C12.1406 15.1106 13.4886 15.6684 14.4825 16.6615C15.4764 17.6545 16.0347 19.0014 16.0347 20.4058V28.3376C16.0473 29.0494 16.3391 29.7277 16.8473 30.2266C17.3555 30.7255 18.0395 31.005 18.7519 31.005C19.4644 31.005 20.1483 30.7255 20.6565 30.2266C21.1647 29.7277 21.4565 29.0494 21.4691 28.3376V20.4058C21.4508 17.5765 20.3105 14.8699 18.2982 12.8792C16.286 10.8884 13.5659 9.77602 10.7341 9.78571V9.78656Z" fill="#FAFAFA"/>
</svg>
